{"title":"Goin' South 1978 480p HDRip XviD titler","uid":9590989,"size":1180899481,"categoryP":"video","categoryS":"movies","magnet":"?xt=urn:btih:cba31520d0ab5734e4a25733ab9defde021cbfee&amp;dn=Goin%27+South+1978+480p+HDRip+XviD+titler&amp;tr=udp%3A%2F%2Ftracker.openbittorrent.com%3A80&amp;tr=udp%3A%2F%2Fopen.demonii.com%3A1337&amp;tr=udp%3A%2F%2Ftracker.coppersurfer.tk%3A6969&amp;tr=udp%3A%2F%2Fexodus.desync.com%3A6969","seeders":0,"leechers":2,"uploader":"movieZ.freak","files":5,"time":1391898388,"description":"SOURCE: Goin' South 1978 HDTVRip 720p x264 AC3\n\n\n &lt;a href=&quot;\nhttp://www.imdb.com/title/tt0077621/&quot; rel=&quot;nofollow&quot; target=&quot;_NEW&quot;&gt;\nhttp://www.imdb.com/title/tt0077621/&lt;/a&gt;\n\n\n &lt;a href=&quot;\nhttp://www.rottentomatoes.com/m/goin_south/&quot; rel=&quot;nofollow&quot; target=&quot;_NEW&quot;&gt;\nhttp://www.rottentomatoes.com/m/goin_south/&lt;/a&gt;\n\n\n &lt;a href=&quot;\nhttp://en.wikipedia.org/wiki/Goin%27_South&quot; rel=&quot;nofollow&quot; target=&quot;_NEW&quot;&gt;\nhttp://en.wikipedia.org/wiki/Goin%27_South&lt;/a&gt;\n\n\n\n\n- SAMPLE: Yes\n\n\n- SUBTITLE: English\n\n\n- LANGUAGE / AUDIO: English\n\n\n\n\nSCREENSHOTS:\n-------------------    &lt;a href=&quot;\nhttp://someimage.com/OWqH&quot; rel=&quot;nofollow&quot; target=&quot;_NEW&quot;&gt;\nhttp://someimage.com/OWqH&lt;/a&gt;\n\n\n\n\nDIRECTOR: Jack Nicholson\n &lt;a href=&quot;\nhttp://www.imdb.com/name/nm0000197/&quot; rel=&quot;nofollow&quot; target=&quot;_NEW&quot;&gt;\nhttp://www.imdb.com/name/nm0000197/&lt;/a&gt;\n\n\n\n\nCAST: Jack Nicholson, Mary Steenburgen, Christopher Lloyd, John Belushi, Veronica Cartwright Danny DeVito, Ed Begley Jr., Richard Bradford,...\n\n\n\nPLOT:\n-----------\nSentenced to hang in a backwater western town, horse thief Henry Moon (Jack Nicholson) is saved when frontierswoman Julia Tate (Mary Steenburgen) agrees to marry him. Taking advantage of the town law that prohibits the execution of married men, Moon follows Tate back to her ranch, planning all the while to escape at the first possible opportunity. But Tate insists that he honor his end of the bargain at work on the ranch. She has no intention of consummating the union, a fact that drives the hot-to-trot Moon up a wall. She puts him to work on the gold mine that she has on her property, while his old gang prepares to relieve the couple of their gold once it's on the surface. Jack Nicholson personally selected movie newcomer Mary Steenburgen for Goin' South. The film also features John Belushi in the role of a dyspeptic deputy.\n\n\n************************************\n\n- Duration: 1h 44mn\n\n- Bit rate: 1 349 Kbps\n\n- Res: 854 x 480\n\n- AR: 16:9\n\n- FPS: 25.000 fps\n\n- Audio: AC3, 2 channels, 128Kbps\n\n************************************\n\n\nGeneral\n---------------\nFormat : AVI\nFormat/Info : Audio Video Interleave\nFile size : 1.08 GiB\nDuration : 1h 44mn\nOverall bit rate : 1 487 Kbps\nWriting library : VirtualDub build 35491\n\n\nVideo\n--------------\nFormat : MPEG-4 Visual\nFormat profile : Advanced Simple@L5\nFormat settings, BVOP : 2\nFormat settings, QPel : No\nFormat settings, GMC : No warppoints\nFormat settings, Matrix : Default (H.263)\nCodec ID : XVID\nCodec ID/Hint : XviD\nDuration : 1h 44mn\nBit rate : 1 349 Kbps\nWidth : 854 pixels\nHeight : 480 pixels\nDisplay aspect ratio : 16:9\nFrame rate : 25.000 fps\nColor space : YUV\nChroma subsampling : 4:2:0\nBit depth : 8 bits\nScan type : Progressive\nCompression mode : Lossy\nBits/(Pixel*Frame) : 0.132\nStream size : 1 004 MiB (91%)\nWriting library : XviD 65\n\n\nAudio\n------------\nFormat : AC-3\nFormat/Info : Audio Coding 3\nMode extension : CM (complete main)\nFormat settings, Endianness : Big\nCodec ID : 2000\nDuration : 1h 44mn\nBit rate mode : Constant\nBit rate : 128 Kbps\nChannel(s) : 2 channels\nChannel positions : Front: L R\nSampling rate : 48.0 KHz\nBit depth : 16 bits\nCompression mode : Lossy\nStream size : 95.3 MiB (9%)\nAlignment : Aligned on interleaves\nInterleave, duration : 40 ms (1.00 video frame)\nInterleave, preload duration : 512 ms","torrent":{"xt":"urn:btih:cba31520d0ab5734e4a25733ab9defde021cbfee","amp;dn":"Goin%27+South+1978+480p+HDRip+XviD+titler","amp;tr":["udp%3A%2F%2Ftracker.openbittorrent.com%3A80","udp%3A%2F%2Fopen.demonii.com%3A1337","udp%3A%2F%2Ftracker.coppersurfer.tk%3A6969","udp%3A%2F%2Fexodus.desync.com%3A6969"],"infoHash":"cba31520d0ab5734e4a25733ab9defde021cbfee","infoHashBuffer":{"type":"Buffer","data":[203,163,21,32,208,171,87,52,228,162,87,51,171,157,239,222,2,28,191,238]},"announce":[],"urlList":[]}}